<svg width="20" height="20" viewBox="0 0 20 20" fill="none" xmlns="http://www.w3.org/2000/svg">
<path d="M12.5002 1.66667H5.00016C4.55814 1.66667 4.13421 1.84227 3.82165 2.15483C3.50909 2.46739 3.3335 2.89131 3.3335 3.33334V16.6667C3.3335 17.1087 3.50909 17.5326 3.82165 17.8452C4.13421 18.1577 4.55814 18.3333 5.00016 18.3333H15.0002C15.4422 18.3333 15.8661 18.1577 16.1787 17.8452C16.4912 17.5326 16.6668 17.1087 16.6668 16.6667V5.83334L12.5002 1.66667Z" stroke="#E0E7FF" stroke-width="1.66667" stroke-linecap="round" stroke-linejoin="round"/>
<path d="M11.6665 1.66667V5.00001C11.6665 5.44203 11.8421 5.86596 12.1547 6.17852C12.4672 6.49108 12.8911 6.66667 13.3332 6.66667H16.6665" stroke="#E0E7FF" stroke-width="1.66667" stroke-linecap="round" stroke-linejoin="round"/>
<path d="M6.6665 10.8333H8.33317" stroke="#E0E7FF" stroke-width="1.66667" stroke-linecap="round" stroke-linejoin="round"/>
<path d="M11.6665 10.8333H13.3332" stroke="#E0E7FF" stroke-width="1.66667" stroke-linecap="round" stroke-linejoin="round"/>
<path d="M6.6665 14.1667H8.33317" stroke="#E0E7FF" stroke-width="1.66667" stroke-linecap="round" stroke-linejoin="round"/>
<path d="M11.6665 14.1667H13.3332" stroke="#E0E7FF" stroke-width="1.66667" stroke-linecap="round" stroke-linejoin="round"/>
</svg>
